<?xml version="1.0" encoding="utf-8"?>
<svg viewBox="0 0 305 194" xmlns="http://www.w3.org/2000/svg">
  <g transform="matrix(0.1, 0, 0, -0.1, 0, 194)" fill="#000000" stroke="none">
    <path d="M1320 1601 l-215 -97 0 -75 0 -74 428 -3 427 -2 0 -60 0 -60 -430 0 -430 0 0 -90 0 -90 435 0 c379 0 435 2 435 15 0 13 -56 15 -417 17 l-418 3 0 55 0 55 428 3 427 2 0 95 0 95 -431 0 -430 0 3 46 3 45 207 94 208 93 211 -95 c164 -74 213 -92 220 -82 4 7 7 14 6 16 -8 8 -431 193 -440 192 -7 0 -109 -44 -227 -98z" style="fill: rgb(255, 255, 255);"/>
    <path d="M548 714 c-3 -100 0 -122 16 -107 10 10 7 213 -3 213 -6 0 -11 -48 -13 -106z" style="fill: rgb(255, 255, 255);"/>
    <path d="M1180 810 c0 -5 5 -10 10 -10 6 0 10 5 10 10 0 6 -4 10 -10 10 -5 0 -10 -4 -10 -10z" style="fill: rgb(255, 255, 255);"/>
    <path d="M1650 710 c0 -105 1 -110 21 -110 17 0 19 3 10 14 -8 9 -11 46 -9 103 l3 88 36 3 c57 5 86 -12 100 -57 15 -50 -4 -109 -41 -128 -20 -10 -21 -13 -7 -13 10 0 32 13 48 29 23 24 29 38 29 74 0 25 -3 53 -6 62 -11 27 -60 45 -124 45 l-60 0 0 -110z" style="fill: rgb(255, 255, 255);"/>
    <path d="M2185 810 c-3 -5 1 -10 9 -10 9 0 16 5 16 10 0 6 -4 10 -9 10 -6 0 -13 -4 -16 -10z" style="fill: rgb(255, 255, 255);"/>
    <path d="M815 775 c-5 -11 -13 -23 -19 -27 -7 -5 -7 -8 2 -8 8 0 12 -18 12 -58 0 -59 11 -82 40 -82 12 1 12 2 -2 11 -14 8 -18 23 -18 69 0 47 3 59 18 63 15 4 15 5 0 6 -9 0 -18 11 -21 24 -3 21 -4 21 -12 2z" style="fill: rgb(255, 255, 255);"/>
    <path d="M630 681 c0 -39 5 -73 10 -76 6 -4 10 14 10 47 0 64 16 91 51 86 22 -3 24 -8 27 -63 2 -33 8 -64 13 -70 7 -7 9 15 7 65 l-3 75 -33 3 c-18 2 -40 -2 -48 -9 -10 -8 -14 -8 -14 0 0 6 -4 11 -10 11 -6 0 -10 -30 -10 -69z" style="fill: rgb(255, 255, 255);"/>
    <path d="M907 732 c-24 -26 -22 -87 3 -112 21 -21 65 -26 90 -10 10 6 4 8 -21 4 -30 -5 -39 -2 -53 17 -28 40 -21 49 39 49 48 0 55 3 55 19 0 11 -7 27 -16 35 -21 22 -27 20 -14 -3 18 -34 11 -41 -35 -41 -49 0 -53 5 -29 38 18 27 4 29 -19 4z" style="fill: rgb(255, 255, 255);"/>
    <path d="M1060 681 c0 -88 17 -102 22 -19 4 68 1 88 -13 88 -5 0 -9 -31 -9 -69z" style="fill: rgb(255, 255, 255);"/>
    <path d="M1100 740 c0 -5 7 -10 15 -10 8 0 15 5 15 10 0 6 -7 10 -15 10 -8 0 -15 -4 -15 -10z" style="fill: rgb(255, 255, 255);"/>
    <path d="M1180 674 c0 -47 4 -73 10 -69 6 3 10 37 10 76 0 39 -4 69 -10 69 -6 0 -10 -32 -10 -76z" style="fill: rgb(255, 255, 255);"/>
    <path d="M1270 730 c-28 -28 -26 -75 5 -105 30 -30 64 -32 99 -4 30 24 35 72 10 107 -22 31 -36 27 -18 -5 18 -36 18 -63 -2 -91 -18 -26 -56 -29 -75 -6 -20 24 -16 95 7 111 10 7 12 13 6 13 -7 0 -21 -9 -32 -20z" style="fill: rgb(255, 255, 255);"/>
    <path d="M1440 681 c0 -88 17 -102 22 -19 4 68 1 88 -13 88 -5 0 -9 -31 -9 -69z" style="fill: rgb(255, 255, 255);"/>
    <path d="M1475 740 c-3 -5 3 -10 14 -10 12 0 21 5 21 10 0 6 -6 10 -14 10 -8 0 -18 -4 -21 -10z" style="fill: rgb(255, 255, 255);"/>
    <path d="M1896 728 c-36 -52 1 -129 61 -127 28 1 28 1 -5 10 -31 9 -56 43 -45 62 2 4 26 7 54 7 44 0 49 2 49 23 0 24 -17 47 -34 47 -6 0 -5 -5 2 -12 7 -7 12 -20 12 -30 0 -14 -8 -18 -40 -18 -32 0 -40 4 -40 18 0 10 5 23 12 30 9 9 9 12 1 12 -7 0 -19 -10 -27 -22z" style="fill: rgb(255, 255, 255);"/>
    <path d="M2057 743 c-4 -3 -7 -18 -7 -33 0 -20 8 -30 33 -41 45 -20 45 -55 0 -53 -18 1 -30 -2 -27 -7 9 -16 50 -10 68 10 23 25 13 59 -19 67 -35 9 -51 30 -35 49 12 14 0 22 -13 8z" style="fill: rgb(255, 255, 255);"/>
    <path d="M2108 743 c7 -3 16 -2 19 1 4 3 -2 6 -13 5 -11 0 -14 -3 -6 -6z" style="fill: rgb(255, 255, 255);"/>
    <path d="M2190 674 c0 -47 4 -73 10 -69 6 3 10 37 10 76 0 39 -4 69 -10 69 -6 0 -10 -32 -10 -76z" style="fill: rgb(255, 255, 255);"/>
    <path d="M2271 728 c-9 -24 -4 -55 11 -64 5 -3 4 -12 -3 -20 -8 -10 -9 -17 0 -28 9 -10 8 -16 -4 -26 -21 -17 -19 -47 4 -60 30 -15 33 -12 11 10 -16 16 -18 25 -10 40 14 25 85 29 94 4 7 -18 -8 -50 -26 -57 -9 -4 -9 -6 -1 -6 11 -1 53 45 53 58 -1 20 -24 35 -61 40 -41 6 -44 8 -45 39 -1 18 -4 36 -7 39 -3 3 -2 16 3 29 6 15 6 24 -1 24 -5 0 -13 -10 -18 -22z" style="fill: rgb(255, 255, 255);"/>
    <path d="M2348 738 c16 -16 15 -50 0 -67 -11 -11 -10 -13 1 -9 37 11 40 88 4 88 -13 0 -14 -3 -5 -12z" style="fill: rgb(255, 255, 255);"/>
    <path d="M2440 673 c0 -88 18 -91 20 -3 2 74 2 80 -10 80 -6 0 -10 -32 -10 -77z" style="fill: rgb(255, 255, 255);"/>
    <path d="M2495 743 c37 -9 45 -24 45 -85 0 -37 4 -57 10 -53 14 9 12 119 -2 133 -7 7 -26 11 -42 11 -22 -1 -25 -3 -11 -6z" style="fill: rgb(255, 255, 255);"/>
    <path d="M1718 603 c7 -3 16 -2 19 1 4 3 -2 6 -13 5 -11 0 -14 -3 -6 -6z" style="fill: rgb(255, 255, 255);"/>
  </g>
</svg>